<?xml version="1.0" standalone="no"?>
<!DOCTYPE svg PUBLIC "-//W3C//DTD SVG 20010904//EN"
 "http://www.w3.org/TR/2001/REC-SVG-20010904/DTD/svg10.dtd">
<svg version="1.0" xmlns="http://www.w3.org/2000/svg"
 width="368.000000pt" height="101.000000pt" viewBox="0 0 368.000000 101.000000"
 preserveAspectRatio="xMidYMid meet">

<g transform="translate(0.000000,101.000000) scale(0.100000,-0.100000)"
fill="#000000" stroke="none">
<path d="M390 901 c-134 -44 -224 -149 -250 -291 -13 -73 -22 -92 -61 -138
-16 -18 -29 -44 -29 -58 0 -38 48 -231 66 -266 l16 -30 71 6 c217 21 397 97
515 217 88 89 132 212 112 316 -30 164 -131 241 -325 249 -49 2 -101 0 -115
-5z m118 -113 c19 -19 14 -63 -9 -84 -19 -17 -23 -17 -47 -3 -32 17 -40 59
-17 83 19 19 56 21 73 4z m103 -8 c23 -13 25 -53 3 -74 -19 -20 -24 -20 -52 0
-26 18 -28 41 -5 66 19 21 27 22 54 8z m-190 -88 c47 -39 16 -122 -46 -122
-62 0 -93 83 -46 122 13 10 33 18 46 18 13 0 33 -8 46 -18z m259 3 c10 -12 10
-18 0 -30 -25 -30 -61 -7 -46 30 3 8 12 15 19 15 8 0 20 -7 27 -15z"/>
<path d="M1045 866 c-29 -29 -33 -80 -10 -114 27 -38 119 -49 132 -15 8 20 -2
26 -25 14 -50 -27 -98 31 -73 86 11 23 16 25 57 20 38 -4 45 -2 42 12 -2 11
-16 17 -51 19 -39 3 -51 -1 -72 -22z"/>
<path d="M1909 874 c-8 -9 -12 -39 -11 -75 2 -67 6 -79 28 -79 10 0 14 12 14
38 0 21 6 44 12 50 10 10 10 15 -1 21 -17 11 -7 41 14 41 8 0 15 5 15 10 0 16
-56 12 -71 -6z"/>
<path d="M1482 843 c-5 -10 -6 -40 -3 -68 6 -48 7 -50 39 -50 17 0 31 5 30 10
-1 6 -8 9 -15 7 -9 -2 -13 9 -13 33 0 24 4 35 15 35 8 0 15 5 15 10 0 6 -7 10
-15 10 -8 0 -15 7 -15 15 0 21 -27 19 -38 -2z"/>
<path d="M1206 814 c-22 -21 -20 -57 3 -78 28 -26 101 -23 101 3 0 5 -15 8
-32 7 -45 -1 -47 18 -3 24 36 5 40 10 31 43 -6 22 -78 24 -100 1z m69 -14 c3
-5 -3 -10 -14 -10 -12 0 -21 5 -21 10 0 6 6 10 14 10 8 0 18 -4 21 -10z"/>
<path d="M1330 775 c0 -48 3 -55 19 -55 16 0 20 8 23 43 2 29 8 42 18 42 11 0
16 -13 18 -43 3 -34 7 -43 20 -40 19 3 27 45 18 84 -6 22 -12 24 -61 24 l-55
0 0 -55z"/>
<path d="M1582 818 c-13 -13 -16 -57 -4 -75 19 -30 100 -34 110 -5 2 8 -8 11
-34 9 -22 -1 -39 3 -41 11 -3 8 8 12 36 12 33 0 41 4 41 18 0 10 -5 23 -12 30
-16 16 -80 16 -96 0z m68 -18 c0 -5 -9 -10 -21 -10 -11 0 -17 5 -14 10 3 6 13
10 21 10 8 0 14 -4 14 -10z"/>
<path d="M1710 773 c0 -46 3 -54 18 -51 11 2 18 14 20 36 2 19 11 36 23 42 30
17 22 27 -21 27 l-40 0 0 -54z"/>
<path d="M1993 818 c-35 -45 -11 -99 46 -100 27 -1 40 6 58 28 l23 29 0 -27
c0 -18 5 -28 15 -28 10 0 15 10 15 30 0 20 8 35 25 46 32 21 25 32 -20 32 -30
0 -35 -3 -35 -24 0 -30 -12 -31 -25 -1 -8 17 -20 23 -51 25 -25 2 -45 -2 -51
-10z m67 -37 c0 -36 -17 -49 -37 -28 -20 19 -8 57 18 57 14 0 19 -7 19 -29z"/>
<path d="M1034 617 c-3 -8 -4 -45 -2 -83 2 -53 6 -69 18 -69 11 0 16 15 20 55
l5 55 30 -50 c32 -55 42 -65 68 -65 15 0 17 11 17 85 0 69 -3 85 -15 85 -12 0
-15 -13 -15 -55 0 -30 -3 -55 -7 -55 -5 1 -21 24 -38 53 -30 53 -69 74 -81 44z"/>
<path d="M1970 615 c0 -8 9 -15 20 -15 11 0 20 7 20 15 0 8 -9 15 -20 15 -11
0 -20 -7 -20 -15z"/>
<path d="M2660 615 c0 -8 9 -15 20 -15 11 0 20 7 20 15 0 8 -9 15 -20 15 -11
0 -20 -7 -20 -15z"/>
<path d="M3120 615 c0 -8 9 -15 20 -15 11 0 20 7 20 15 0 8 -9 15 -20 15 -11
0 -20 -7 -20 -15z"/>
<path d="M3488 604 c-2 -22 -8 -28 -31 -29 -17 0 -36 -10 -46 -24 -18 -23 -18
-23 -23 -3 -14 54 -110 33 -116 -25 -5 -47 49 -77 102 -57 26 10 18 27 -8 20
-26 -6 -56 1 -56 14 0 4 20 10 45 12 30 2 45 -1 45 -9 0 -27 31 -43 78 -40
l47 3 0 79 c0 67 -3 80 -17 83 -12 2 -18 -5 -20 -24z m-138 -64 c0 -5 -7 -10
-15 -10 -8 0 -15 5 -15 10 0 6 7 10 15 10 8 0 15 -4 15 -10z m128 -22 c-3 -36
-15 -42 -31 -17 -13 21 -2 49 18 49 12 0 15 -8 13 -32z"/>
<path d="M1242 564 c-27 -19 -29 -64 -4 -87 19 -17 57 -22 86 -11 26 10 18 27
-8 20 -27 -7 -56 1 -56 15 0 5 18 9 40 9 36 0 40 3 40 25 0 42 -56 59 -98 29z
m58 -24 c0 -5 -7 -10 -15 -10 -8 0 -15 5 -15 10 0 6 7 10 15 10 8 0 15 -4 15
-10z"/>
<path d="M1504 565 c-3 -7 -4 -32 -2 -56 4 -54 31 -63 36 -12 2 20 11 37 23
44 11 6 19 15 17 21 -6 16 -69 18 -74 3z"/>
<path d="M1612 564 c-26 -18 -30 -65 -6 -88 8 -9 30 -16 48 -16 59 0 87 59 46
100 -24 24 -57 26 -88 4z m66 -37 c5 -23 -15 -47 -34 -40 -8 3 -14 18 -14 35
0 25 4 29 22 26 13 -2 24 -11 26 -21z"/>
<path d="M1748 569 c-27 -15 -22 -38 12 -57 42 -24 42 -44 0 -22 -13 7 -21 7
-26 -1 -15 -25 61 -40 84 -17 20 20 14 37 -20 58 l-33 20 28 0 c19 0 27 4 25
13 -6 16 -48 20 -70 6z"/>
<path d="M1862 564 c-26 -18 -30 -65 -6 -88 25 -26 94 -18 94 10 0 10 -6 11
-23 5 -31 -12 -50 1 -45 30 2 18 9 24 30 24 34 1 47 13 28 25 -22 14 -53 12
-78 -6z"/>
<path d="M2052 564 c-26 -18 -30 -65 -6 -88 16 -16 59 -21 88 -10 29 11 16 25
-20 22 -23 -2 -39 2 -41 10 -3 8 7 12 31 12 44 0 57 22 31 50 -22 24 -53 26
-83 4z m58 -24 c0 -5 -9 -10 -20 -10 -11 0 -20 5 -20 10 0 6 9 10 20 10 11 0
20 -4 20 -10z"/>
<path d="M2174 571 c-2 -2 -4 -28 -4 -58 0 -39 4 -53 14 -53 17 0 26 22 26 61
0 48 28 37 32 -13 2 -30 8 -43 18 -43 20 0 28 104 8 106 -32 4 -90 4 -94 0z"/>
<path d="M2320 560 c-24 -24 -25 -48 -4 -78 17 -25 74 -31 93 -9 15 19 2 28
-21 16 -25 -13 -50 6 -46 35 2 16 10 21 36 21 33 0 44 18 16 29 -29 11 -54 6
-74 -14z"/>
<path d="M2452 564 c-26 -18 -30 -65 -6 -88 16 -16 59 -21 88 -10 29 11 16 25
-20 22 -23 -2 -39 2 -41 10 -4 9 16 12 76 12 47 0 81 4 81 10 0 6 -16 10 -35
10 -23 0 -42 8 -59 25 -29 29 -52 31 -84 9z m58 -24 c0 -5 -9 -10 -20 -10 -11
0 -20 5 -20 10 0 6 9 10 20 10 11 0 20 -4 20 -10z"/>
<path d="M2728 569 c-16 -10 -5 -104 12 -104 8 0 16 9 18 20 7 50 13 65 27 65
9 0 15 -14 17 -42 2 -30 8 -43 18 -43 18 0 27 82 11 98 -11 11 -87 16 -103 6z"/>
<path d="M2878 569 c-27 -15 -22 -38 12 -57 31 -17 42 -39 15 -28 -8 3 -22 9
-30 12 -9 4 -15 1 -15 -9 0 -28 69 -38 90 -12 18 21 5 44 -32 60 l-33 14 33 1
c22 0 32 4 30 13 -6 16 -48 20 -70 6z"/>
<path d="M3005 571 c-30 -6 -30 -7 -30 -76 0 -58 3 -70 18 -73 12 -2 17 3 17
17 0 17 6 21 29 21 54 0 79 62 41 100 -21 21 -26 22 -75 11z m53 -47 c3 -23
-21 -49 -38 -39 -11 7 -14 48 -3 59 13 13 38 1 41 -20z"/>
<path d="M3188 569 c-5 -3 -8 -28 -6 -55 2 -36 7 -49 18 -49 10 0 16 12 18 32
2 20 11 37 23 43 29 16 23 35 -12 35 -17 0 -35 -3 -41 -6z"/>
<path d="M1362 518 l3 -53 55 0 55 0 0 50 c0 39 -4 50 -17 53 -14 3 -18 -4
-18 -30 0 -32 -14 -58 -32 -58 -4 0 -8 20 -8 45 0 39 -3 45 -21 45 -18 0 -20
-5 -17 -52z"/>
<path d="M1972 518 c2 -39 7 -53 18 -53 11 0 16 14 18 53 3 47 1 52 -18 52
-19 0 -21 -5 -18 -52z"/>
<path d="M2662 518 c2 -39 7 -53 18 -53 11 0 16 14 18 53 3 47 1 52 -18 52
-19 0 -21 -5 -18 -52z"/>
<path d="M3120 514 c0 -47 3 -55 18 -52 13 2 18 15 20 56 3 47 1 52 -17 52
-19 0 -21 -6 -21 -56z"/>
<path d="M1417 354 c-14 -15 -6 -34 14 -34 14 0 19 5 17 17 -3 18 -20 27 -31
17z"/>
<path d="M1503 352 c-20 -13 -30 -54 -25 -109 3 -44 7 -53 23 -53 15 0 19 7
19 38 0 21 6 44 12 50 10 10 10 15 -1 21 -19 12 -6 42 14 35 10 -4 15 0 15 10
0 17 -35 22 -57 8z"/>
<path d="M1580 340 c0 -15 5 -20 18 -18 9 2 17 10 17 18 0 8 -8 16 -17 18 -13
2 -18 -3 -18 -18z"/>
<path d="M1770 340 c0 -15 5 -20 18 -18 9 2 17 10 17 18 0 8 -8 16 -17 18 -13
2 -18 -3 -18 -18z"/>
<path d="M1977 354 c-4 -4 -7 -43 -7 -86 0 -70 2 -79 18 -76 14 3 17 15 17 82
0 73 -9 99 -28 80z"/>
<path d="M2590 274 c0 -73 2 -85 16 -82 13 2 16 17 16 76 -1 39 -1 77 -1 82
-1 6 -8 10 -16 10 -12 0 -15 -16 -15 -86z"/>
<path d="M2657 354 c-4 -4 -7 -43 -7 -86 0 -72 2 -78 20 -78 20 0 21 5 18 82
-3 75 -12 100 -31 82z"/>
<path d="M2715 350 c-4 -7 -3 -16 3 -22 14 -14 45 -2 40 15 -6 16 -34 21 -43
7z"/>
<path d="M1071 328 c-5 -13 -18 -47 -30 -76 -12 -29 -21 -55 -21 -57 0 -12 39
-3 44 10 3 9 18 15 40 15 21 0 36 -6 40 -15 5 -15 46 -22 46 -7 -1 4 -13 39
-28 77 -24 61 -31 70 -55 73 -21 3 -29 -2 -36 -20z m46 -74 c-3 -3 -12 -4 -20
-2 -11 2 -12 9 -5 28 l10 25 11 -23 c5 -12 8 -25 4 -28z"/>
<path d="M2137 344 c-4 -4 -7 -38 -7 -76 0 -53 4 -70 15 -75 9 -3 18 -4 20 -2
2 2 5 38 6 79 2 59 -1 76 -12 78 -8 1 -18 0 -22 -4z"/>
<path d="M1311 313 c-7 -13 -22 -18 -53 -18 l-43 0 -3 -52 c-3 -48 -1 -53 17
-53 17 0 21 6 21 29 0 20 8 35 22 45 33 23 38 20 38 -23 0 -46 18 -64 54 -55
31 7 34 20 6 27 -28 7 -27 53 1 62 21 7 21 8 -7 31 -35 28 -40 29 -53 7z"/>
<path d="M2356 306 c-10 -15 -12 -27 -6 -31 6 -3 10 -24 10 -45 0 -45 24 -60
62 -38 l23 13 -22 3 c-18 3 -23 10 -23 32 0 16 7 30 16 34 14 5 13 10 -8 31
-29 31 -32 31 -52 1z"/>
<path d="M1417 294 c-4 -4 -7 -29 -7 -56 0 -42 3 -48 21 -48 18 0 20 5 17 52
-3 48 -15 68 -31 52z"/>
<path d="M1580 246 c0 -50 2 -56 21 -56 18 0 20 5 17 52 -2 41 -7 54 -20 56
-15 3 -18 -5 -18 -52z"/>
<path d="M1658 289 c-12 -6 -18 -22 -18 -44 0 -45 38 -73 78 -59 33 12 26 29
-11 25 -27 -2 -28 -1 -25 31 3 31 5 33 37 30 24 -3 32 0 29 10 -6 16 -67 22
-90 7z"/>
<path d="M1770 244 c0 -47 3 -55 18 -52 31 6 28 108 -3 108 -11 0 -15 -13 -15
-56z"/>
<path d="M1841 287 c-15 -19 -3 -29 21 -16 10 5 24 7 30 3 7 -5 -1 -12 -23
-19 -25 -9 -35 -18 -37 -37 -4 -31 12 -38 67 -31 41 6 41 6 41 47 0 23 -5 47
-12 54 -16 16 -73 15 -87 -1z m59 -62 c0 -8 -7 -15 -15 -15 -16 0 -20 12 -8
23 11 12 23 8 23 -8z"/>
<path d="M2210 243 c0 -46 3 -53 20 -53 17 0 20 7 20 40 0 54 27 56 32 3 2
-30 7 -38 23 -38 15 0 21 8 23 32 5 55 -11 72 -68 71 l-50 -1 0 -54z"/>
<path d="M2465 284 c-43 -44 11 -120 71 -99 45 16 41 34 -5 28 -27 -4 -41 -2
-41 6 0 6 11 11 24 11 54 0 71 23 40 54 -20 21 -68 20 -89 0z m60 -13 c7 -12
-12 -24 -25 -16 -11 7 -4 25 10 25 5 0 11 -4 15 -9z"/>
<path d="M2720 255 c0 -25 0 -48 0 -52 0 -5 8 -8 18 -8 16 0 19 27 13 98 -1 4
-8 7 -16 7 -11 0 -15 -12 -15 -45z"/>
<path d="M2793 288 c-16 -20 -23 -124 -10 -137 13 -13 86 -15 105 -2 22 14 10
54 -18 62 -21 5 -22 7 -7 14 9 4 17 15 17 25 0 11 5 22 10 25 6 3 10 10 10 16
0 14 -96 11 -107 -3z m49 -33 c0 -5 -5 -11 -11 -13 -6 -2 -11 4 -11 13 0 9 5
15 11 13 6 -2 11 -8 11 -13z m23 -85 c-3 -5 -17 -10 -31 -10 -13 0 -24 5 -24
10 0 6 14 10 31 10 17 0 28 -4 24 -10z"/>
<path d="M2925 276 c-33 -50 16 -106 78 -90 41 10 34 31 -8 26 -21 -3 -35 0
-35 7 0 6 13 11 29 11 40 0 55 20 35 48 -22 31 -78 30 -99 -2z m70 -5 c7 -12
-12 -24 -25 -16 -11 7 -4 25 10 25 5 0 11 -4 15 -9z"/>
<path d="M3055 291 c-3 -2 -5 -26 -5 -53 0 -41 3 -48 20 -48 16 0 20 7 20 34
0 33 20 62 33 49 4 -3 7 -24 7 -45 0 -31 3 -38 20 -38 17 0 20 7 20 44 0 24
-6 48 -13 54 -12 11 -93 13 -102 3z"/>
<path d="M3207 282 c-42 -46 -1 -111 63 -97 41 9 40 33 -2 31 -28 -1 -34 3
-36 23 -4 29 14 42 47 34 17 -4 22 -2 19 8 -7 22 -71 23 -91 1z"/>
<path d="M3324 275 c-34 -52 11 -104 78 -90 42 10 37 35 -6 28 -19 -3 -36 -1
-40 6 -5 7 4 11 26 11 52 0 65 13 44 44 -23 36 -79 37 -102 1z m71 -5 c3 -6
-1 -13 -10 -16 -19 -8 -30 0 -20 15 8 14 22 14 30 1z"/>
</g>
</svg>
