<?xml version="1.0" standalone="no"?>
<!DOCTYPE svg PUBLIC "-//W3C//DTD SVG 20010904//EN"
 "http://www.w3.org/TR/2001/REC-SVG-20010904/DTD/svg10.dtd">
<svg version="1.0" xmlns="http://www.w3.org/2000/svg"
 width="234.000000pt" height="222.000000pt" viewBox="0 0 234.000000 222.000000"
 preserveAspectRatio="xMidYMid meet">

<g transform="translate(0.000000,222.000000) scale(0.100000,-0.100000)"
fill="#000000" stroke="none">
<path d="M0 1110 l0 -1110 1170 0 1170 0 0 1110 0 1110 -1170 0 -1170 0 0
-1110z m254 166 c47 -20 71 -83 63 -168 -8 -94 -60 -145 -123 -122 -42 14 -65
54 -71 122 -8 83 16 148 61 168 39 16 31 16 70 0z m734 -8 c14 -12 15 -18 4
-35 -6 -10 -15 -10 -40 -1 -27 11 -34 10 -48 -4 -24 -24 -12 -44 39 -66 57
-25 76 -70 53 -125 -16 -41 -41 -57 -86 -57 -41 0 -70 16 -70 39 0 27 9 30 41
14 27 -13 32 -13 54 1 14 9 25 23 25 31 0 17 -27 45 -44 45 -24 0 -64 40 -71
70 -8 37 12 80 45 97 26 13 75 9 98 -9z m-527 2 c13 -7 19 -7 19 0 0 6 41 10
110 10 l110 0 0 -113 c0 -116 6 -137 42 -137 29 0 38 34 38 144 0 99 1 106 20
106 19 0 20 -7 20 -125 0 -120 -1 -127 -25 -150 -31 -32 -86 -34 -115 -5 -18
18 -20 34 -21 148 -1 70 -3 119 -6 110 -3 -12 -14 -18 -33 -18 l-29 0 -3 -127
c-3 -124 -4 -128 -25 -131 -23 -3 -23 -3 -23 127 l0 131 -26 0 c-23 0 -25 -3
-20 -26 9 -34 -10 -91 -34 -104 -10 -6 -32 -10 -49 -10 l-31 0 0 -60 c0 -53
-2 -60 -20 -60 -19 0 -20 7 -20 150 l0 150 51 0 c28 0 59 -5 70 -10z m669
-170 c0 -67 -4 -110 -10 -110 -6 0 -10 43 -10 110 0 67 4 110 10 110 6 0 10
-43 10 -110z m480 70 c0 -11 7 -20 15 -20 8 0 15 -4 15 -10 0 -5 -7 -10 -15
-10 -12 0 -15 -13 -15 -55 0 -40 4 -57 15 -61 21 -9 19 -24 -4 -24 -13 0 -21
9 -25 28 -5 28 -10 111 -7 150 1 27 21 30 21 2z m480 0 c0 -11 7 -20 15 -20 8
0 15 -4 15 -10 0 -5 -7 -10 -15 -10 -12 0 -15 -13 -15 -58 l0 -58 49 -1 c64
-1 75 20 26 48 -34 20 -42 40 -29 73 7 18 74 23 74 6 0 -5 -13 -10 -30 -10
-41 0 -39 -23 5 -49 38 -22 45 -49 20 -75 -11 -11 -33 -15 -73 -13 l-57 2 -3
65 c-2 35 -8 68 -15 73 -9 7 -9 10 1 14 6 2 12 13 12 24 0 10 5 19 10 19 6 0
10 -9 10 -20z m-896 -31 c11 18 44 13 56 -8 13 -25 13 -141 0 -141 -6 0 -10
28 -10 65 0 52 -4 67 -16 72 -26 10 -44 -25 -44 -85 0 -33 -4 -51 -10 -47 -5
3 -10 37 -10 74 0 67 7 92 21 70 5 -8 8 -8 13 0z m106 -50 c17 -59 21 -57 40
14 7 26 17 47 21 47 12 0 12 -2 -13 -86 -12 -41 -26 -73 -32 -71 -5 2 -20 37
-33 78 -27 88 -26 82 -11 77 7 -3 20 -29 28 -59z m157 49 c6 -7 13 -25 17 -40
6 -27 5 -28 -34 -28 -39 0 -41 -1 -38 -27 3 -25 7 -28 36 -27 33 2 44 -12 17
-22 -26 -10 -61 5 -73 31 -16 35 -15 60 3 95 17 32 54 41 72 18z m113 2 c0 -5
-13 -10 -30 -10 -39 0 -40 -24 -1 -44 37 -20 45 -43 26 -72 -15 -24 -39 -30
-69 -18 -29 11 -17 23 18 17 50 -8 57 21 11 48 -26 16 -35 28 -35 48 0 15 3
31 7 34 10 11 73 8 73 -3z m166 -1 c8 -7 14 -7 19 1 3 5 17 10 29 10 28 0 36
-21 36 -97 0 -78 -19 -75 -22 4 -3 60 -5 68 -23 68 -17 0 -20 -8 -23 -55 -4
-85 -16 -93 -22 -15 -4 62 -7 70 -25 70 -17 0 -20 -8 -23 -60 -5 -93 -22 -92
-22 1 l0 79 32 2 c17 1 37 -2 44 -8z m184 -8 c5 -11 10 -29 10 -40 0 -18 -6
-21 -40 -21 -42 0 -47 -8 -29 -42 8 -16 17 -19 40 -14 30 6 40 -7 13 -18 -48
-19 -84 13 -84 74 0 20 7 46 16 58 19 27 60 29 74 3z m118 -64 c2 -53 -1 -77
-8 -72 -5 3 -10 35 -10 71 0 46 -4 64 -13 64 -26 0 -37 -25 -37 -82 0 -32 -4
-58 -10 -58 -6 0 -10 33 -10 78 l0 79 43 -1 42 -1 3 -78z"/>
<path d="M186 1218 c-31 -43 -16 -178 20 -192 39 -15 64 29 64 112 0 63 -19
102 -50 102 -10 0 -26 -10 -34 -22z"/>
<path d="M380 1190 c0 -46 2 -50 23 -50 13 0 28 5 35 12 29 29 2 88 -39 88
-16 0 -19 -7 -19 -50z"/>
<path d="M1407 1124 c-4 -4 -7 -16 -7 -26 0 -13 7 -18 26 -18 21 0 25 4 22 22
-3 23 -27 35 -41 22z"/>
<path d="M1861 1112 c-12 -23 -5 -32 26 -32 20 0 24 5 21 22 -4 29 -34 35 -47
10z"/>
</g>
</svg>
