<?xml version="1.0" standalone="no"?>
<!DOCTYPE svg PUBLIC "-//W3C//DTD SVG 20010904//EN"
 "http://www.w3.org/TR/2001/REC-SVG-20010904/DTD/svg10.dtd">
<svg version="1.0" xmlns="http://www.w3.org/2000/svg"
 width="119.000000pt" height="40.000000pt" viewBox="0 0 119.000000 40.000000"
 preserveAspectRatio="xMidYMid meet">

<g transform="translate(0.000000,40.000000) scale(0.100000,-0.100000)"
fill="#000000" stroke="none">
<path d="M62 325 c-45 -20 -62 -65 -62 -168 0 -71 3 -87 20 -102 20 -18 20
-17 20 91 0 120 9 147 55 158 29 7 79 -15 89 -39 22 -57 -16 -105 -82 -105
-35 0 -42 -3 -42 -20 0 -23 24 -26 79 -10 54 15 81 47 81 95 0 49 -22 82 -66
101 -41 17 -50 17 -92 -1z"/>
<path d="M257 200 c-26 -58 -32 -80 -22 -80 8 0 19 9 25 20 16 29 92 28 112
-1 8 -12 19 -20 25 -18 6 2 -4 35 -25 82 -28 62 -39 77 -57 77 -17 0 -28 -15
-58 -80z m77 13 l17 -33 -36 0 -35 0 17 35 c9 19 17 34 19 32 1 -1 9 -17 18
-34z"/>
<path d="M430 200 c0 -63 3 -80 14 -80 11 0 16 14 18 50 l3 50 35 -47 c19 -26
43 -49 53 -51 15 -3 17 6 17 77 0 64 -3 81 -15 81 -10 0 -15 -15 -17 -57 l-3
-58 -40 57 c-55 79 -65 76 -65 -22z"/>
<path d="M597 274 c-11 -12 3 -24 29 -24 23 0 24 -3 24 -65 0 -51 3 -65 15
-65 12 0 15 14 15 65 0 63 1 65 25 65 16 0 25 6 25 15 0 12 -14 15 -63 15 -35
0 -67 -3 -70 -6z"/>
<path d="M762 203 l3 -78 58 -3 c46 -2 57 0 57 13 0 11 -11 15 -45 15 -38 0
-45 3 -45 20 0 16 7 20 30 20 17 0 30 5 30 10 0 6 -13 10 -30 10 -23 0 -30 4
-30 20 0 17 7 20 45 20 33 0 45 4 45 15 0 12 -13 15 -60 15 l-61 0 3 -77z"/>
<path d="M928 266 c-42 -31 -40 -113 2 -136 26 -14 73 -12 95 3 24 18 3 32
-25 17 -49 -26 -97 28 -66 75 13 20 25 26 49 25 49 -3 54 -1 33 15 -24 18 -65
19 -88 1z"/>
<path d="M1060 200 c0 -64 3 -80 15 -80 10 0 15 11 15 35 0 33 2 35 35 35 33
0 35 -2 35 -35 0 -24 5 -35 15 -35 12 0 15 16 15 80 0 63 -3 80 -14 80 -9 0
-16 -12 -18 -32 -3 -29 -7 -33 -35 -36 -32 -3 -33 -2 -33 32 0 25 -4 36 -15
36 -12 0 -15 -16 -15 -80z"/>
</g>
</svg>
